<svg width="48" height="42" viewBox="0 0 48 42" fill="none" xmlns="http://www.w3.org/2000/svg">
<path d="M20.6719 23.3298C20.6719 24.6198 21.6619 25.6598 22.8919 25.6598H25.4019C26.4719 25.6598 27.3419 24.7498 27.3419 23.6298C27.3419 22.4098 26.8119 21.9798 26.0219 21.6998L21.9919 20.2998C21.2019 20.0198 20.6719 19.5898 20.6719 18.3698C20.6719 17.2498 21.5419 16.3398 22.6119 16.3398H25.1219C26.3519 16.3398 27.3419 17.3798 27.3419 18.6698" stroke="white" stroke-width="1.5" stroke-linecap="round" stroke-linejoin="round"/>
<path d="M24 15V27" stroke="white" stroke-width="1.5" stroke-linecap="round" stroke-linejoin="round"/>
<path d="M24 31C29.5228 31 34 26.5228 34 21C34 15.4772 29.5228 11 24 11C18.4772 11 14 15.4772 14 21C14 26.5228 18.4772 31 24 31Z" stroke="white" stroke-width="1.5" stroke-linecap="round" stroke-linejoin="round"/>
<rect x="1" y="1" width="46" height="40" rx="5" stroke="#3E3E47" stroke-width="2"/>
</svg>
