<svg width="48" height="42" viewBox="0 0 48 42" fill="none" xmlns="http://www.w3.org/2000/svg">
<path d="M17 24V17" stroke="white" stroke-width="1.5" stroke-linecap="round" stroke-linejoin="round"/>
<path d="M17.25 31C19.0449 31 20.5 29.5449 20.5 27.75C20.5 25.9551 19.0449 24.5 17.25 24.5C15.4551 24.5 14 25.9551 14 27.75C14 29.5449 15.4551 31 17.25 31Z" stroke="white" stroke-width="1.5" stroke-linecap="round" stroke-linejoin="round"/>
<path d="M17 17C18.6569 17 20 15.6569 20 14C20 12.3431 18.6569 11 17 11C15.3431 11 14 12.3431 14 14C14 15.6569 15.3431 17 17 17Z" stroke="white" stroke-width="1.5" stroke-linecap="round" stroke-linejoin="round"/>
<path d="M31 17C32.6569 17 34 15.6569 34 14C34 12.3431 32.6569 11 31 11C29.3431 11 28 12.3431 28 14C28 15.6569 29.3431 17 31 17Z" stroke="white" stroke-width="1.5" stroke-linecap="round" stroke-linejoin="round"/>
<path d="M17.1299 24C17.5799 22.25 19.1799 20.95 21.0699 20.96L24.4999 20.97C27.1199 20.98 29.3499 19.3 30.1699 16.96" stroke="white" stroke-width="1.5" stroke-linecap="round" stroke-linejoin="round"/>
<rect x="1" y="1" width="46" height="40" rx="5" stroke="#3E3E47" stroke-width="2"/>
</svg>
